<svg version="1.1" class="svg-bg-2" xmlns="http://www.w3.org/2000/svg" xmlns:xlink="http://www.w3.org/1999/xlink" x="0px" y="0px" width="480px" height="533px" viewBox="0 0 480 533" enable-background="new 0 0 480 533" xml:space="preserve">
															<g>
																<g>
																	<path id="blub" fill-rule="evenodd" clip-rule="evenodd" fill="#0ea3d5" d="M478.471,137.3 C479.116,164.912 460.616,171.76 459.598,209.258 458.58,286.073 411.846,308.185 396.623,339.701 381.389,372.15 398.384,401.253 370.326,423.638 342.268,446.033 333.18,424.281 273.656,464.705 214.132,505.129 192.551,505.359 144.575,489.582 96.112,473.795 78.387,466.529 59.605,407.759 39.997,347.193 12.156,331.78 11.778,263.74 11.4,195.699 23.988,191.291 24.989,159.471 25.484,128.661 -2.522,116.111 14.589,91.366 29.275,71.508 53.057,88.824 74.724,86.803 97.169,84.763 228.139,23.689 280.782,25.946 320.826,27.788 341.849,48.802 393.824,80.656 445.798,112.5 477.837,99.506 478.465,137.294 z" data-svg-origin="47 0.3897857666015625" transform="matrix(1,0,0,1,0,0)" style=""></path>
																</g>
															</g>
														</svg>